<svg xmlns="http://www.w3.org/2000/svg" viewBox="0 0 24 24"><path d="M19,4H5A1,1,0,0,0,4,5V19a1,1,0,0,0,1,1H19a1,1,0,0,0,1-1V5A1,1,0,0,0,19,4ZM8.74,17.4a.16.16,0,0,1-.16.16H6.52a.13.13,0,0,1-.14-.13V10.11c0-.12,0-.13.14-.13h2a.18.18,0,0,1,.18.18C8.73,11.35,8.74,16.2,8.74,17.4ZM7.56,8.93A1.37,1.37,0,0,1,6.2,7.57,1.35,1.35,0,0,1,7.56,6.21a1.36,1.36,0,1,1,0,2.72Zm10,8.47a.16.16,0,0,1-.16.16h-2a.17.17,0,0,1-.16-.17c0-1.25,0-2.51,0-3.77a3.26,3.26,0,0,0-.08-.82,1.27,1.27,0,0,0-2.47.06,3.33,3.33,0,0,0-.09.78v3.75a.17.17,0,0,1-.16.17H10.37a.14.14,0,0,1-.15-.14V10.13a.16.16,0,0,1,.16-.16h1.94c.13,0,.17,0,.16.15V11h0a2.47,2.47,0,0,1,.81-.83,2.68,2.68,0,0,1,1.85-.37,2.7,2.7,0,0,1,1.21.36,2.35,2.35,0,0,1,1,1.61,7.68,7.68,0,0,1,.15,1.65C17.58,14.75,17.57,16.08,17.58,17.4Z" style="fill:#fff"/></svg>