<svg xmlns="http://www.w3.org/2000/svg" viewBox="0 0 32 32"><path d="M22,14.4a1.14,1.14,0,0,0-1.16.94h2.24A1.06,1.06,0,0,0,22,14.4Z" style="fill:#f55"/><path d="M17.28,14.4a1.13,1.13,0,0,0-1.15.94h2.24A1.06,1.06,0,0,0,17.28,14.4Z" style="fill:#f55"/><path d="M28.41,13.41l-2.82-2.82A2,2,0,0,0,24.17,10H21.75l.12-1.88a2,2,0,0,0-2-2.12h-13a2,2,0,0,0-2,1.88V8H2a1,1,0,0,0,0,2H4.75l-.13,2H3a1,1,0,0,0,0,2H4.5l-.37,5.88a2,2,0,0,0,2,2.12H7.56a4,4,0,0,1,6.88,0h5.12a4,4,0,0,1,6.88,0H27a2,2,0,0,0,2-2V14.83A2,2,0,0,0,28.41,13.41Zm-16.72-.49H9v1.69h2.33v.9H9v2.37H8V12h3.69Zm2.94,1.74a.8.8,0,0,0-.5-.15c-.49,0-.88.39-.88,1.09v2.28h-1V13.69h.83l.14.49a1.2,1.2,0,0,1,1.06-.61,1.27,1.27,0,0,1,.73.2Zm4.63,1.46H16.12a1.17,1.17,0,0,0,1.16,1.05,1.06,1.06,0,0,0,1-.64l.85.26A1.86,1.86,0,0,1,17.28,18a2.11,2.11,0,0,1-2.12-2.22,2.12,2.12,0,0,1,2.11-2.21,2,2,0,0,1,2,2.16Zm4.74,0H20.87A1.15,1.15,0,0,0,22,17.17a1.05,1.05,0,0,0,1-.64l.85.26A1.85,1.85,0,0,1,22,18a2.11,2.11,0,0,1-2.13-2.22A2.12,2.12,0,0,1,22,13.57a2,2,0,0,1,2,2.16Z" style="fill:#f55"/><path d="M11,21a3,3,0,1,0,3,3A3,3,0,0,0,11,21Zm0,4a1,1,0,1,1,1-1A1,1,0,0,1,11,25Z" style="fill:#f55"/><path d="M23,21a3,3,0,1,0,3,3A3,3,0,0,0,23,21Zm0,4a1,1,0,1,1,1-1A1,1,0,0,1,23,25Z" style="fill:#f55"/></svg>