<svg xmlns="http://www.w3.org/2000/svg" viewBox="0 0 32 32"><path d="M26.23,13.22a4.22,4.22,0,0,1-1-1.05,4.53,4.53,0,0,1-.06-1.52,3.88,3.88,0,0,0-.69-3.14,3.84,3.84,0,0,0-3.14-.69,4.51,4.51,0,0,1-1.52-.06,4.22,4.22,0,0,1-1-1C18.09,5,17.23,4,16,4s-2.09,1-2.78,1.77a4.22,4.22,0,0,1-1.05,1,4.51,4.51,0,0,1-1.52.06,3.88,3.88,0,0,0-3.14.69,3.88,3.88,0,0,0-.69,3.14,4.53,4.53,0,0,1-.06,1.52,4.22,4.22,0,0,1-1,1.05C5,13.91,4,14.77,4,16a3.09,3.09,0,0,0,1.09,2.15c.22.22.46.43.68.63a4.06,4.06,0,0,1,1,1,4.51,4.51,0,0,1,.06,1.52,3.85,3.85,0,0,0,.69,3.13,3.84,3.84,0,0,0,3.14.7h.14a3.9,3.9,0,0,1,1.38.07,4.22,4.22,0,0,1,1.05,1C13.91,27,14.77,28,16,28a2.61,2.61,0,0,0,1.59-.59,8.31,8.31,0,0,0,1.19-1.18,4.22,4.22,0,0,1,1-1,4.53,4.53,0,0,1,1.52-.06,3.84,3.84,0,0,0,3.14-.7,3.85,3.85,0,0,0,.69-3.13,1.09,1.09,0,0,0,0-.18,3.67,3.67,0,0,1,.07-1.34,4.06,4.06,0,0,1,1-1C27,18.09,28,17.23,28,16S27,13.91,26.23,13.22Zm-4.53.48-6,6a1,1,0,0,1-1.4,0l-3-3a1,1,0,0,1,1.4-1.4L15,17.6l5.3-5.3a1,1,0,0,1,1.4,1.4Z" style="fill:#f55"/></svg>