<svg xmlns="http://www.w3.org/2000/svg" viewBox="0 0 32 32"><path d="M12.22,10.19a.48.48,0,0,1,.56,0L14,11V6H11v5Z" style="fill:#f55"/><path d="M17,21a7,7,0,0,1,5-6.71V8a2,2,0,0,0-2-2H16v5a2,2,0,0,1-1.06,1.76,2,2,0,0,1-2-.1l-.39-.26-.39.26a2,2,0,0,1-2,.1A2,2,0,0,1,9,11V6H5A2,2,0,0,0,3,8V24a2,2,0,0,0,2,2H19.11A7,7,0,0,1,17,21Z" style="fill:#f55"/><path d="M24,16a5,5,0,1,0,5,5A5,5,0,0,0,24,16Zm3,6H24.41l.3.29a1,1,0,0,1,0,1.42,1,1,0,0,1-1.42,0l-2-2a1,1,0,0,1-.21-.33A1,1,0,0,1,21,21h0a1,1,0,0,1,.08-.37,1,1,0,0,1,.21-.33l2-2a1,1,0,0,1,1.42,1.42l-.3.29H27a1,1,0,0,1,0,2Z" style="fill:#f55"/></svg>