<svg xmlns="http://www.w3.org/2000/svg" viewBox="0 0 32 32"><path d="M28,19a1,1,0,0,0-1-1H25a1,1,0,0,0,0,2h1v1.62a17.4,17.4,0,0,1,2,.94Z" style="fill:#695787"/><path d="M14.73,21.52a16.08,16.08,0,0,1,6.33-1c.32,0,.63.07.94.1V5a1,1,0,0,0-1-1H5A1,1,0,0,0,4,5V19a8.89,8.89,0,0,1,4.21-.81A9,9,0,0,1,14.73,21.52ZM9,9h7a1,1,0,0,1,0,2H9A1,1,0,0,1,9,9Zm0,3.53h4a1,1,0,0,1,0,2H9a1,1,0,0,1,0-2Z" style="fill:#695787"/><path d="M14.73,21.52a9,9,0,0,1,2,6.12c0,.12,0,.24,0,.36H24a4,4,0,0,0,4-4V22.56a17.4,17.4,0,0,0-2-.94V24a2,2,0,0,1-4,0V20.66c-.31,0-.62-.08-.94-.1A16.08,16.08,0,0,0,14.73,21.52Z" style="fill:#ffb140;opacity:0.75"/><path d="M6.86,27.81a16,16,0,0,1,7.87-6.29,9,9,0,0,0-6.52-3.33A8.89,8.89,0,0,0,4,19v5A4,4,0,0,0,6.86,27.81Z" style="fill:#ffb140;opacity:0.75"/><path d="M14.73,21.52a16,16,0,0,0-7.87,6.29A3.89,3.89,0,0,0,8,28h8.7c0-.12,0-.24,0-.36A9,9,0,0,0,14.73,21.52Z" style="fill:#ffca6f;opacity:0.5"/></svg>