<svg xmlns="http://www.w3.org/2000/svg" viewBox="0 0 32 32"><path d="M14.5,18.5a.5.5,0,0,0,1,0,1.5,1.5,0,0,0-3,0,.5.5,0,0,0,1,0,.5.5,0,0,1,1,0Z" style="fill:#695787"/><path d="M18,17a1.5,1.5,0,0,0-1.5,1.5.5.5,0,0,0,1,0,.5.5,0,0,1,1,0,.5.5,0,0,0,1,0A1.5,1.5,0,0,0,18,17Z" style="fill:#695787"/><path d="M17.5,20h-3a.5.5,0,0,0-.5.5c0,.84.88,1.5,2,1.5s2-.66,2-1.5A.5.5,0,0,0,17.5,20Z" style="fill:#695787"/><path d="M24,5H12a1,1,0,0,0-1,1V8a1,1,0,0,0,2,0V7H24a3,3,0,0,1,3,3v2a2,2,0,0,1-2,2l-1.41-2.11A2,2,0,0,0,21.93,11H8a2,2,0,0,0-2,2v1H5.77A8.76,8.76,0,0,1,6,16a9.2,9.2,0,0,1-.24,2.05A.93.93,0,0,1,6,18a1,1,0,0,1,0,2,1,1,0,0,1-.76-.38l-.11.22A15.91,15.91,0,0,1,6,24H6v1a2,2,0,0,0,2,2H21.93a2,2,0,0,0,1.66-.89L25,24h2a2,2,0,0,0,2-2V10A5,5,0,0,0,24,5ZM20.62,20.89a5,5,0,0,1-9.24,0,2,2,0,0,1,0-3.78,5,5,0,0,1,9.24,0,2,2,0,0,1,0,3.78Z" style="fill:#695787"/><path d="M3,22.69V23a1,1,0,0,0,1,1H6a15.91,15.91,0,0,0-.82-4.16A8.81,8.81,0,0,1,3,22.69Z" style="fill:#ffb140;opacity:0.75"/><path d="M3,15v.7a15.75,15.75,0,0,1,2.13,4.14l.11-.22A1,1,0,0,1,5,19a1,1,0,0,1,.76-.95A9.2,9.2,0,0,0,6,16a8.76,8.76,0,0,0-.23-2H4A1,1,0,0,0,3,15Z" style="fill:#ffb140;opacity:0.75"/><path d="M3,22.69a8.81,8.81,0,0,0,2.13-2.85A15.75,15.75,0,0,0,3,15.7Z" style="fill:#ffca6f;opacity:0.5"/></svg>