<svg xmlns="http://www.w3.org/2000/svg" viewBox="0 0 32 32"><circle cx="16" cy="8" r="4" style="fill:#695787"/><path d="M22.55,16.46a1,1,0,0,0,.89.54,1.07,1.07,0,0,0,.46-.11,1,1,0,0,0,.43-1.35c-.53-1-1.12-2.06-1.74-3.06a1,1,0,1,0-1.7,1C21.48,14.48,22.05,15.5,22.55,16.46Z" style="fill:#695787"/><path d="M11.11,13.52a1,1,0,0,0-1.7-1c-.42.68-.82,1.39-1.21,2.09a16.68,16.68,0,0,1,1.92.65C10.44,14.65,10.77,14.08,11.11,13.52Z" style="fill:#695787"/><path d="M28,23a4,4,0,0,0-7.55-1.81,8.53,8.53,0,0,1,1.91,1.45,8.86,8.86,0,0,1,2.39,4.28A4,4,0,0,0,28,23Z" style="fill:#695787"/><path d="M17.68,24c-1.1,0-2.26.05-3.38,0a1,1,0,0,0-1,1,1,1,0,0,0,1,1l1.32,0c.74,0,1.48,0,2.2-.05a1,1,0,0,0,.95-1A1,1,0,0,0,17.68,24Z" style="fill:#ffca6f;opacity:0.5"/><path d="M7.67,15.54a1,1,0,0,0,.43,1.35,1.07,1.07,0,0,0,.46.11,1,1,0,0,0,.69-.28,1.37,1.37,0,0,0,.2-.26c.21-.4.44-.82.67-1.24a16.68,16.68,0,0,0-1.92-.65l-.37.68Z" style="fill:#ffb140;opacity:0.75"/><path d="M20.45,21.19A3.91,3.91,0,0,0,20,23a4,4,0,0,0,4,4,3.67,3.67,0,0,0,.75-.08,8.86,8.86,0,0,0-2.39-4.28A8.53,8.53,0,0,0,20.45,21.19Z" style="fill:#ffb140;opacity:0.75"/><path d="M11.54,21.19a1,1,0,0,1-.07-.15A4,4,0,0,0,4,23a4,4,0,0,0,.69,2.25,4,4,0,0,0,2.56,1.67,8.86,8.86,0,0,1,2.39-4.28A9,9,0,0,1,11.54,21.19Z" style="fill:#ffb140;opacity:0.75"/><path d="M12,23a3.92,3.92,0,0,0-.46-1.81,9,9,0,0,0-1.9,1.45,8.86,8.86,0,0,0-2.39,4.28A3.74,3.74,0,0,0,8,27,4,4,0,0,0,12,23Z" style="fill:#ffca6f;opacity:0.5"/></svg>