<svg xmlns="http://www.w3.org/2000/svg" viewBox="0 0 32 32"><path d="M28.23,21.91A1.38,1.38,0,0,0,26.92,21H26.3l1.17-1.86A1.4,1.4,0,0,0,26.28,17h-.13l.43-2H27a1,1,0,0,0,1-1V12a1,1,0,0,0-1-1H24.22L22.68,6.37A2,2,0,0,0,20.78,5H19a1,1,0,0,0-1-1H14a1,1,0,0,0-1,1H11.22a2,2,0,0,0-1.9,1.37L7.78,11H5a1,1,0,0,0-1,1v2a1,1,0,0,0,1,1h.42l.31,1.46A15.89,15.89,0,0,1,11,18.77V18a1,1,0,0,1,2,0v2.4a15.78,15.78,0,0,1,2.33,2.76A9.18,9.18,0,0,1,17,23a9,9,0,0,1,5.73,2.06l.86-1.46a.4.4,0,0,0-.34-.6H21.71a.41.41,0,0,1-.35-.61l2.52-4.2a.42.42,0,0,1,.35-.19h2.05a.4.4,0,0,1,.34.61l-1.74,2.78a.4.4,0,0,0,.34.61h1.7a.4.4,0,0,1,.26.7l-3.64,3.13a7.79,7.79,0,0,1,.64.76l3.65-3.13A1.38,1.38,0,0,0,28.23,21.91ZM17,21a1,1,0,0,1-2,0V18a1,1,0,0,1,2,0Zm4,0a.24.24,0,0,1,0,.08l-.44.74A1,1,0,0,1,20,22a1,1,0,0,1-1-1V18a1,1,0,0,1,2,0ZM9.89,11l1.33-4H13a1,1,0,0,0,1,1h4a1,1,0,0,0,1-1h1.78l1.33,4Z" style="fill:#695787"/><path d="M10.3,26h0a9,9,0,0,1,5-2.84A15.78,15.78,0,0,0,13,20.4V21a1,1,0,0,1-2,0V18.77a15.89,15.89,0,0,0-5.27-2.31L7.3,23.63A3.07,3.07,0,0,0,10.3,26Z" style="fill:#ffb140;opacity:0.75"/><path d="M21,28l1.2-2,.53-.9A9,9,0,0,0,17,23a9.18,9.18,0,0,0-1.67.16A16.37,16.37,0,0,1,16.83,26H21l-.88,1.49a1,1,0,0,0,1.51,1.27l2.53-2.17a7.79,7.79,0,0,0-.64-.76Z" style="fill:#ffb140;opacity:0.75"/><path d="M10.31,26h6.52a16.37,16.37,0,0,0-1.5-2.84A9,9,0,0,0,10.31,26Z" style="fill:#ffca6f;opacity:0.5"/></svg>