<svg xmlns="http://www.w3.org/2000/svg" viewBox="0 0 32 32"><path d="M15.5,24.46A15.83,15.83,0,0,1,28,22.52V7.45A2,2,0,0,0,26.46,5.5,19.93,19.93,0,0,0,22,5a19.53,19.53,0,0,0-6,1,19.53,19.53,0,0,0-6-1,19.93,19.93,0,0,0-4.46.5A2,2,0,0,0,4,7.45V22.29A16.41,16.41,0,0,1,7,22,15.89,15.89,0,0,1,15.5,24.46ZM7.36,18.23l6-5a1,1,0,0,1,1.24,0L18,15.73l5.39-4.5a1,1,0,1,1,1.28,1.54l-6,5a1,1,0,0,1-1.24,0L14,15.27l-5.39,4.5A1,1,0,0,1,8,20a1,1,0,0,1-.77-.36A1,1,0,0,1,7.36,18.23Z" style="fill:#695787"/><path d="M15.5,24.46a16.22,16.22,0,0,1,2,1.49h0a25.64,25.64,0,0,1,4-.48,24.85,24.85,0,0,1,4.13.51A2,2,0,0,0,28,24V22.52a15.83,15.83,0,0,0-12.5,1.94Z" style="fill:#ffb140;opacity:0.75"/><path d="M6.37,26a24.85,24.85,0,0,1,4.13-.51,20.45,20.45,0,0,1,3.16.34,17.29,17.29,0,0,1,1.84-1.34A15.89,15.89,0,0,0,7,22a16.41,16.41,0,0,0-3,.29V24A2,2,0,0,0,6.37,26Z" style="fill:#ffb140;opacity:0.75"/><path d="M13.66,25.8l.28,0A2,2,0,0,0,15.72,27h0A2,2,0,0,0,17.5,26a16.22,16.22,0,0,0-2-1.49A17.29,17.29,0,0,0,13.66,25.8Z" style="fill:#ffca6f;opacity:0.5"/></svg>