<svg xmlns="http://www.w3.org/2000/svg" viewBox="0 0 32 32"><path d="M23.53,9h-.25a15.91,15.91,0,0,1-9.35-3H8A3,3,0,0,0,5,9v2.94a2.58,2.58,0,0,0-1.79,1.5,2.61,2.61,0,0,0,.52,2.84l.3.31L4,17a2.64,2.64,0,0,0,1,2.5l0,0v1.56A3,3,0,0,0,8,24H21a1,1,0,0,1,.74.35l1.51,1.87a2.06,2.06,0,0,0,1.62.78,2.21,2.21,0,0,0,.71-.12,2.08,2.08,0,0,0,1.4-2V19.49a.1.1,0,0,0,.05,0A2.6,2.6,0,0,0,28,17L28,16.54l.3-.31A2.65,2.65,0,0,0,29,14.48,9,9,0,0,1,23.53,9Zm-12.7,5.81-.78.81a.52.52,0,0,0-.14.25.53.53,0,0,0,0,.28l.17,1.1a.6.6,0,0,1-.23.59.59.59,0,0,1-.37.13.55.55,0,0,1-.29-.08l-.86-.48A.59.59,0,0,0,8,17.37H8a.62.62,0,0,0-.29.07l-.86.48a.55.55,0,0,1-.29.08.59.59,0,0,1-.37-.13.6.6,0,0,1-.23-.59l.17-1.1a.53.53,0,0,0,0-.28A.52.52,0,0,0,6,15.65l-.78-.81a.6.6,0,0,1-.12-.67.63.63,0,0,1,.46-.37l1-.15a.85.85,0,0,0,.26-.11A.68.68,0,0,0,7,13.3l.44-1A.64.64,0,0,1,8,12H8a.61.61,0,0,1,.55.35l.44,1a.68.68,0,0,0,.2.24.85.85,0,0,0,.26.11l1,.15a.63.63,0,0,1,.46.37A.6.6,0,0,1,10.83,14.84Zm8,0-.78.81a.52.52,0,0,0-.14.25.53.53,0,0,0,0,.28l.17,1.1a.6.6,0,0,1-.23.59.59.59,0,0,1-.37.13.55.55,0,0,1-.29-.08l-.86-.48a.59.59,0,0,0-.29-.07h0a.62.62,0,0,0-.29.07l-.86.48a.55.55,0,0,1-.29.08.59.59,0,0,1-.37-.13.6.6,0,0,1-.23-.59l.17-1.1a.53.53,0,0,0,0-.28.52.52,0,0,0-.14-.25l-.78-.81a.6.6,0,0,1-.12-.67.63.63,0,0,1,.46-.37l1-.15a.85.85,0,0,0,.26-.11.68.68,0,0,0,.2-.24l.44-1A.64.64,0,0,1,16,12h0a.61.61,0,0,1,.55.35l.44,1a.68.68,0,0,0,.2.24.85.85,0,0,0,.26.11l1,.15a.63.63,0,0,1,.46.37A.6.6,0,0,1,18.83,14.84ZM27,14.17a.6.6,0,0,1-.12.67l-.78.81a.52.52,0,0,0-.14.25.53.53,0,0,0,0,.28l.17,1.1a.6.6,0,0,1-.23.59.59.59,0,0,1-.37.13.55.55,0,0,1-.29-.08l-.86-.48a.59.59,0,0,0-.29-.07h0a.62.62,0,0,0-.29.07l-.86.48a.55.55,0,0,1-.29.08.59.59,0,0,1-.37-.13.6.6,0,0,1-.23-.59l.17-1.1a.53.53,0,0,0,0-.28.52.52,0,0,0-.14-.25l-.78-.81a.6.6,0,0,1-.12-.67.63.63,0,0,1,.46-.37l1-.15a.85.85,0,0,0,.26-.11.68.68,0,0,0,.2-.24l.44-1A.64.64,0,0,1,24,12h0a.61.61,0,0,1,.55.35l.44,1a.68.68,0,0,0,.2.24.85.85,0,0,0,.26.11l1,.15A.63.63,0,0,1,27,14.17Z" style="fill:#695787"/><path d="M23.53,9A9,9,0,0,1,23,6H13.93a15.91,15.91,0,0,0,9.35,3Z" style="fill:#ffb140;opacity:0.75"/><path d="M27,11.89V9a2,2,0,0,0,0-.35A16.1,16.1,0,0,1,23.53,9,9,9,0,0,0,29,14.48a2.75,2.75,0,0,0-.21-1.09A2.58,2.58,0,0,0,27,11.89Z" style="fill:#ffb140;opacity:0.75"/><path d="M24.05,6H23a9,9,0,0,0,.53,3A16.1,16.1,0,0,0,27,8.6,2.94,2.94,0,0,0,24.05,6Z" style="fill:#ffca6f;opacity:0.5"/></svg>