<svg xmlns="http://www.w3.org/2000/svg" viewBox="0 0 32 32"><path d="M28,9.5V9a1,1,0,0,0,0-.24l-1-4A1,1,0,0,0,26,4H6a1,1,0,0,0-1,.76l-1,4A1,1,0,0,0,4,9v.5a4.49,4.49,0,0,0,3.05,4.24A1.09,1.09,0,0,0,7,14v.52a15.9,15.9,0,0,1,1.31,1.17,9.86,9.86,0,0,1,.69.76V14a4.5,4.5,0,0,0,3.14-1.81,5,5,0,0,0,7.74,0A4.5,4.5,0,0,0,23,14v5H10.84a16.47,16.47,0,0,1,1,2,9,9,0,0,1,6.85,2.62A8.43,8.43,0,0,1,19.81,25H23v2a1,1,0,0,0,2,0V25a2,2,0,0,0,2-2V21a2,2,0,0,0-2-2V14a1.09,1.09,0,0,0-.05-.26A4.49,4.49,0,0,0,28,9.5Z" style="fill:#695787"/><path d="M5,21v2a2,2,0,0,0,.43,1.23A7.43,7.43,0,0,1,6,23.64,9,9,0,0,1,11.84,21a16.47,16.47,0,0,0-1-2H9V16.45a9.86,9.86,0,0,0-.69-.76A15.9,15.9,0,0,0,7,14.52V19A2,2,0,0,0,5,21Z" style="fill:#ffb140;opacity:0.75"/><path d="M11.84,21a16,16,0,0,1,1,4h7a8.43,8.43,0,0,0-1.12-1.36A9,9,0,0,0,11.84,21Z" style="fill:#ffb140;opacity:0.75"/><path d="M5.43,24.23A2,2,0,0,0,7,25v2a1,1,0,0,0,2,0V25h3.86a16,16,0,0,0-1-4A9,9,0,0,0,6,23.64,7.43,7.43,0,0,0,5.43,24.23Z" style="fill:#ffca6f;opacity:0.5"/></svg>