<svg xmlns="http://www.w3.org/2000/svg" viewBox="0 0 32 32"><path d="M21.23,18.83A16.27,16.27,0,0,1,23,15.68a50.3,50.3,0,0,0-4.4-8.37,2,2,0,0,0-2.2-.9A57.74,57.74,0,0,0,9,8.81a2.09,2.09,0,0,0-1.1,2.8c1.3,3,1.1,7.2-.6,11.6a.76.76,0,0,0-.1.4,1,1,0,0,0,1,1,1.42,1.42,0,0,0,.6-.2,17.91,17.91,0,0,1,9.71-3.64A9,9,0,0,1,21.23,18.83Zm-5.32-2.32a1.7,1.7,0,0,1-.7.1A2.34,2.34,0,0,1,13,15a.73.73,0,0,1,1.4-.4.66.66,0,0,0,.4.5.62.62,0,0,0,.7.1.8.8,0,0,0,.6-1.1.73.73,0,1,1,1.4-.4A2.13,2.13,0,0,1,15.91,16.51Z" style="fill:#695787"/><path d="M6.21,25.71s-1.7,1.9-1.1,3.1C7.91,29.51,7.71,25.91,6.21,25.71Z" style="fill:#695787"/><path d="M8.71,6.51H9a1,1,0,0,0,.4-1,1,1,0,0,1,.6-1.1.8.8,0,0,1,1.1.6.73.73,0,0,0,1.4-.4,2.39,2.39,0,0,0-3-1.5A2.28,2.28,0,0,0,8,6,.75.75,0,0,0,8.71,6.51Z" style="fill:#695787"/><path d="M23.88,18.08q-.39-1.2-.87-2.4a16.27,16.27,0,0,0-1.78,3.15A8.86,8.86,0,0,1,23.88,18.08Z" style="fill:#ffb140;opacity:0.75"/><path d="M21.23,18.83a9,9,0,0,0-2.71,1.94,8.73,8.73,0,0,1,2,.2A17.27,17.27,0,0,1,21.23,18.83Z" style="fill:#ffb140;opacity:0.75"/><path d="M20.53,21a6.56,6.56,0,0,1,2.58,1.14,1.42,1.42,0,0,0,.6.2,1,1,0,0,0,1-1v-.4c-.23-.94-.51-1.89-.83-2.83a8.86,8.86,0,0,0-2.65.75A17.27,17.27,0,0,0,20.53,21Z" style="fill:#ffca6f;opacity:0.5"/><path d="M29,22.51c-1.5-2.5-3.9.2-3,1.4C26,23.91,28.61,23.81,29,22.51Z" style="fill:#ffb140;opacity:0.75"/></svg>